# xmcd
#
# Track frame offsets:
#	150
#	13626
#	52209
#	68900
#	84310
#	97676
#	128022
#	145093
#	154104
#	168299
#
# Disc length: 2464 seconds
#
# Revision: 1
# Processed by: cddbd v1.5.1PL0 Copyright (c) Steve Scherf et al.
# Submitted via: audiograbber 1.82.01
#
DISCID=76099e0a
DTITLE=V/A - The Brown Bunny
DYEAR=1900
DGENRE=Soundtrack
TTITLE0=Come Wander With Me
TTITLE1=Tears For Dolphy
TTITLE2=Milk And Honey
TTITLE3=Beautiful
TTITLE4=Smooth
TTITLE5=Forever Away
TTITLE6=Dying Song
TTITLE7=Leave All the Days Behind
TTITLE8=Prostitution Song
TTITLE9=Falling
EXTD=
EXTT0=
EXTT1=
EXTT2=
EXTT3=
EXTT4=
EXTT5=
EXTT6=
EXTT7=
EXTT8=
EXTT9=
PLAYORDER=
